<svg width="469" height="470" viewBox="0 0 469 470" fill="none" xmlns="http://www.w3.org/2000/svg">
<path d="M469 284.032C469 388.034 395.688 470 291.77 470C187.851 470 -116.173 344.979 47.3946 190.657C47.3946 86.6545 187.851 0 291.77 0C395.688 0 469 180.029 469 284.032Z" fill="#FC7963" fill-opacity="0.71"/>
<path d="M267 232.611C275.692 232.611 283.136 237.953 286.245 245.507C280.969 249.776 274.269 252.316 267 252.316C259.731 252.316 253.053 249.776 247.776 245.507C250.864 237.953 258.308 232.611 267 232.611Z" fill="#E7ECED"/>
<path d="M236.347 221.663H297.653C297.653 231.297 293.208 239.901 286.246 245.507C283.137 237.953 275.692 232.611 267 232.611C258.308 232.611 250.864 237.953 247.777 245.507C240.814 239.923 236.347 231.319 236.347 221.663Z" fill="#F4661E"/>
<path d="M286.245 245.507C293.208 239.902 297.653 231.297 297.653 221.663H236.347C236.347 231.319 240.814 239.923 247.776 245.507C253.053 249.776 259.731 252.316 267 252.316C274.269 252.316 280.969 249.776 286.245 245.507ZM267 163.642C294.806 163.642 317.358 186.194 317.358 214C317.358 241.806 294.806 264.358 267 264.358C239.194 264.358 216.642 241.806 216.642 214C216.642 186.194 239.194 163.642 267 163.642Z" fill="#FFD248"/>
<path d="M267 162C238.327 162 215 185.327 215 214C215 242.673 238.327 266 267 266C295.673 266 319 242.673 319 214C319 185.327 295.673 162 267 162ZM267 262.716C240.138 262.716 218.284 240.862 218.284 214C218.284 187.138 240.138 165.284 267 165.284C293.862 165.284 315.716 187.138 315.716 214C315.716 240.862 293.862 262.716 267 262.716Z" fill="#F9CF8C"/>
<path d="M249.484 192.653C252.804 192.653 255.505 195.354 255.505 198.674H258.789C258.789 193.543 254.615 189.368 249.484 189.368C244.353 189.368 240.179 193.542 240.179 198.674H243.463C243.463 195.354 246.164 192.653 249.484 192.653Z" fill="#231F20"/>
<path d="M284.516 192.653C287.836 192.653 290.537 195.354 290.537 198.674H293.821C293.821 193.543 289.647 189.368 284.516 189.368C279.385 189.368 275.21 193.542 275.21 198.674H278.494C278.495 195.354 281.196 192.653 284.516 192.653Z" fill="#231F20"/>
<path d="M234.705 221.663C234.705 231.492 239.094 240.649 246.748 246.786C252.547 251.478 259.551 253.958 267 253.958C274.358 253.958 281.56 251.41 287.275 246.785C294.914 240.636 299.295 231.479 299.295 221.663V220.021H234.705V221.663ZM249.803 245C252.989 238.433 259.609 234.253 267 234.253C274.382 234.253 281.01 238.433 284.216 245.001C279.253 248.667 273.188 250.674 267 250.674C260.729 250.674 254.81 248.716 249.803 245ZM295.965 223.305C295.547 230.796 292.281 237.753 286.804 242.85C282.927 235.566 275.379 230.968 267 230.968C258.612 230.968 251.07 235.566 247.212 242.85C241.726 237.763 238.453 230.805 238.035 223.305H295.965Z" fill="black"/>
<path d="M132.916 136.688C128.934 137.082 125.807 140.958 125.807 145.684C125.807 150.41 128.934 154.286 132.916 154.681V136.688Z" fill="#CE9B57"/>
<path d="M183.09 136.688C187.073 137.082 190.199 140.958 190.199 145.684C190.199 150.41 187.072 154.286 183.09 154.681V136.688Z" fill="#DDAC64"/>
<path d="M158.003 183.231C158.003 183.231 158.003 183.231 158.003 183.231C154.122 183.231 150.445 181.301 147.158 177.854V193.657H147.16C147.205 200.23 152.04 205.543 158 205.543C163.96 205.543 168.795 200.23 168.84 193.657H168.842V177.861C165.556 181.302 161.881 183.231 158.003 183.231Z" fill="#DDAC64"/>
<path d="M152.165 193.656H152.163V181.73C150.418 180.82 148.742 179.515 147.158 177.854V193.657H147.16C147.205 200.23 152.04 205.543 158 205.543C158.862 205.543 159.699 205.429 160.502 205.219C155.748 203.977 152.203 199.279 152.165 193.656Z" fill="#CC9348"/>
<path d="M179.969 112.316L168.939 104.818C165.394 103.464 162.729 103.178 162.729 103.178C156.219 102.28 148.083 104.929 143.14 107.859C140.939 106.326 138.265 105.425 135.38 105.425C127.87 105.425 121.781 111.514 121.781 119.025C121.781 125.644 126.511 131.404 132.775 132.62C132.668 133.325 132.667 133.771 132.667 133.771V162.568C132.667 163.661 132.737 164.738 132.871 165.794C134.456 178.263 145.102 187.902 158.002 187.902C158.002 187.902 158.002 187.902 158.002 187.902C170.902 187.902 181.548 178.263 183.133 165.794C183.268 164.738 183.337 163.661 183.337 162.568V154.681V142.374V139.182L186.306 127.793C185.625 120.898 183.115 115.912 179.969 112.316Z" fill="#EFCA83"/>
<path d="M138.003 165.794C137.869 164.737 137.8 163.66 137.8 162.567V133.771C137.8 133.771 137.801 133.325 137.908 132.62C131.643 131.404 126.913 125.644 126.913 119.025C126.913 112.39 131.665 106.868 137.951 105.67C137.119 105.51 136.26 105.425 135.381 105.425C127.87 105.425 121.781 111.514 121.781 119.025C121.781 125.644 126.512 131.405 132.776 132.621C132.669 133.325 132.668 133.771 132.668 133.771V162.568C132.668 163.661 132.737 164.738 132.872 165.794C134.456 178.263 145.103 187.902 158.003 187.902C158.003 187.902 158.003 187.902 158.003 187.902C158.869 187.902 159.725 187.857 160.568 187.773C148.846 186.593 139.482 177.425 138.003 165.794Z" fill="#E0B063"/>
<path d="M153.509 161.371C153.509 170.846 155.631 179.824 159.42 187.861C171.675 187.185 181.608 177.803 183.134 165.794C183.269 164.738 183.338 163.66 183.338 162.567V154.681V142.374V139.182L186.307 127.793C185.625 120.898 183.115 115.912 179.969 112.316L178.647 111.417C163.393 122.753 153.509 140.907 153.509 161.371Z" fill="#F9CF8C"/>
<path d="M145.504 156.17C147.512 156.17 149.14 154.542 149.14 152.534C149.14 150.526 147.512 148.898 145.504 148.898C143.495 148.898 141.867 150.526 141.867 152.534C141.867 154.542 143.495 156.17 145.504 156.17Z" fill="#898790"/>
<path d="M170.227 156.17C172.235 156.17 173.863 154.542 173.863 152.534C173.863 150.526 172.235 148.898 170.227 148.898C168.219 148.898 166.591 150.526 166.591 152.534C166.591 154.542 168.219 156.17 170.227 156.17Z" fill="#898790"/>
<path d="M183.142 165.673C181.19 168.152 178.567 170.089 175.137 170.096C170.891 170.076 169.274 165.526 164.309 165.564C162.654 165.568 160.626 166.083 158 167.451C155.375 166.082 153.346 165.568 151.691 165.564C146.726 165.526 145.108 170.076 140.863 170.096C137.433 170.089 134.811 168.152 132.858 165.673C132.861 165.694 132.863 165.716 132.865 165.737C132.863 165.734 132.86 165.731 132.858 165.728C132.861 165.75 132.863 165.772 132.866 165.794C133.51 170.864 135.653 175.466 138.836 179.143L138.871 179.175C140.178 180.679 141.659 182.027 143.283 183.189L143.312 183.215C143.459 183.32 143.609 183.419 143.759 183.521C143.798 183.547 143.837 183.575 143.877 183.601C144.019 183.697 144.162 183.791 144.307 183.885C144.356 183.916 144.405 183.947 144.454 183.977C144.695 184.13 144.939 184.279 145.185 184.424C145.265 184.471 145.346 184.518 145.427 184.564C145.638 184.685 145.85 184.802 146.064 184.917C146.161 184.969 146.258 185.021 146.357 185.072C146.488 185.14 146.62 185.208 146.754 185.274C146.935 185.364 147.117 185.452 147.301 185.537C147.427 185.596 147.554 185.653 147.68 185.71C147.809 185.768 147.939 185.824 148.069 185.879C148.242 185.952 148.415 186.025 148.59 186.094C148.732 186.151 148.875 186.207 149.018 186.261C149.134 186.306 149.25 186.349 149.367 186.392C149.578 186.468 149.79 186.542 150.004 186.613C150.115 186.65 150.227 186.686 150.339 186.721C150.54 186.785 150.742 186.846 150.945 186.905C151.059 186.938 151.174 186.97 151.289 187.001C151.475 187.052 151.66 187.101 151.847 187.147C151.94 187.171 152.032 187.194 152.125 187.217C152.368 187.274 152.612 187.327 152.857 187.378C152.951 187.397 153.045 187.416 153.14 187.434C153.392 187.483 153.646 187.529 153.901 187.571C153.977 187.583 154.053 187.594 154.129 187.606C154.363 187.642 154.599 187.675 154.835 187.705C154.893 187.712 154.951 187.72 155.009 187.727C155.285 187.759 155.562 187.786 155.841 187.81C155.914 187.816 155.988 187.822 156.061 187.827C156.342 187.849 156.623 187.866 156.906 187.878C156.966 187.88 157.026 187.882 157.087 187.884C157.386 187.895 157.686 187.902 157.988 187.902C157.991 187.902 157.994 187.902 157.997 187.902C157.997 187.902 157.997 187.902 157.997 187.902C157.998 187.902 157.999 187.902 158 187.902C158.001 187.902 158.002 187.902 158.003 187.902C158.003 187.902 158.003 187.902 158.004 187.902C158.007 187.902 158.01 187.902 158.013 187.902C158.315 187.902 158.614 187.895 158.914 187.884C158.974 187.882 159.034 187.88 159.095 187.878C159.377 187.865 159.659 187.849 159.94 187.827C160.013 187.822 160.087 187.815 160.16 187.81C160.438 187.786 160.715 187.759 160.991 187.727C161.05 187.72 161.108 187.712 161.166 187.705C161.402 187.675 161.637 187.642 161.871 187.606C161.948 187.594 162.024 187.583 162.1 187.571C162.355 187.529 162.608 187.483 162.861 187.434C162.956 187.416 163.05 187.397 163.144 187.378C163.389 187.327 163.633 187.274 163.876 187.217C163.969 187.194 164.061 187.171 164.154 187.147C164.341 187.101 164.526 187.052 164.712 187.001C164.827 186.97 164.942 186.938 165.056 186.905C165.259 186.846 165.461 186.785 165.661 186.721C165.773 186.685 165.885 186.65 165.997 186.613C166.211 186.542 166.423 186.468 166.634 186.392C166.751 186.349 166.867 186.305 166.983 186.261C167.126 186.207 167.269 186.151 167.411 186.094C167.586 186.024 167.76 185.952 167.933 185.879C168.062 185.823 168.192 185.767 168.321 185.71C168.448 185.653 168.574 185.596 168.701 185.537C168.884 185.451 169.066 185.364 169.247 185.274C169.381 185.208 169.513 185.14 169.645 185.072C169.743 185.021 169.84 184.969 169.937 184.917C170.151 184.802 170.364 184.684 170.574 184.564C170.655 184.517 170.736 184.471 170.816 184.424C171.062 184.279 171.306 184.13 171.547 183.977C171.596 183.946 171.645 183.916 171.694 183.884C171.839 183.791 171.982 183.697 172.125 183.601C172.164 183.574 172.203 183.547 172.243 183.52C172.392 183.419 172.542 183.32 172.689 183.215L172.718 183.188C174.342 182.027 175.824 180.679 177.13 179.175L177.165 179.143C180.349 175.466 182.491 170.864 183.136 165.794C183.139 165.772 183.141 165.75 183.143 165.728C183.14 165.731 183.138 165.734 183.136 165.737C183.136 165.716 183.139 165.694 183.142 165.673Z" fill="#935B2A"/>
<path d="M158.889 187.884C158.975 187.882 159.06 187.878 159.146 187.874C159.411 187.862 159.676 187.847 159.939 187.827C159.966 187.825 159.993 187.823 160.019 187.821C160.096 187.814 160.171 187.807 160.247 187.8C160.35 187.792 160.451 187.78 160.553 187.77C150.243 186.727 141.762 179.502 138.868 169.859C136.394 169.274 134.413 167.647 132.858 165.673C132.863 165.713 132.866 165.754 132.872 165.794C133.518 170.882 135.675 175.499 138.877 179.182C139.025 179.353 139.176 179.52 139.328 179.687C139.358 179.719 139.388 179.751 139.417 179.783C139.558 179.935 139.701 180.086 139.846 180.234C139.863 180.252 139.881 180.271 139.898 180.288C140.232 180.629 140.575 180.96 140.926 181.281C140.95 181.302 140.973 181.322 140.995 181.343C141.162 181.494 141.331 181.643 141.501 181.79C141.509 181.797 141.517 181.803 141.524 181.81C141.893 182.126 142.272 182.432 142.659 182.727C142.675 182.739 142.691 182.751 142.707 182.763C142.896 182.907 143.087 183.048 143.28 183.186C143.44 183.301 143.601 183.413 143.764 183.524C143.801 183.55 143.838 183.575 143.876 183.6C144.018 183.696 144.162 183.791 144.306 183.884C144.351 183.913 144.396 183.941 144.441 183.969C144.446 183.973 144.452 183.976 144.457 183.979C144.696 184.13 144.938 184.278 145.182 184.422C145.183 184.423 145.185 184.424 145.186 184.425C145.266 184.472 145.346 184.518 145.426 184.564C145.636 184.684 145.848 184.801 146.062 184.916C146.063 184.916 146.065 184.917 146.066 184.918C146.163 184.969 146.259 185.021 146.356 185.071C146.381 185.084 146.407 185.097 146.433 185.11C146.539 185.165 146.646 185.22 146.754 185.273C146.935 185.363 147.117 185.451 147.3 185.537C147.361 185.565 147.421 185.592 147.482 185.619C147.55 185.65 147.618 185.681 147.685 185.712C147.812 185.768 147.94 185.823 148.068 185.878C148.239 185.951 148.411 186.022 148.584 186.091C148.588 186.093 148.593 186.095 148.598 186.097C148.738 186.153 148.877 186.207 149.017 186.26C149.134 186.305 149.25 186.349 149.366 186.391C149.576 186.467 149.787 186.54 149.999 186.61C150.114 186.648 150.229 186.686 150.345 186.722C150.544 186.785 150.744 186.846 150.944 186.904C151.057 186.937 151.171 186.968 151.284 186.999C151.287 186.999 151.289 187 151.291 187.001C151.475 187.051 151.66 187.1 151.846 187.146C151.871 187.152 151.896 187.159 151.921 187.165C151.99 187.182 152.058 187.2 152.127 187.216C152.368 187.273 152.609 187.326 152.852 187.376C152.949 187.396 153.046 187.415 153.143 187.434C153.394 187.483 153.646 187.529 153.9 187.57C153.976 187.582 154.053 187.593 154.129 187.605C154.361 187.641 154.595 187.673 154.829 187.703C154.89 187.711 154.951 187.719 155.012 187.726C155.286 187.759 155.562 187.785 155.839 187.808C155.852 187.809 155.865 187.81 155.878 187.812C155.939 187.816 155.999 187.822 156.06 187.826C156.339 187.848 156.62 187.864 156.902 187.876C156.965 187.879 157.028 187.881 157.091 187.883C157.388 187.894 157.687 187.9 157.987 187.9C157.989 187.9 157.99 187.9 157.992 187.9C157.995 187.9 157.999 187.901 158.003 187.901C158.003 187.901 158.003 187.901 158.003 187.901C158.006 187.901 158.009 187.9 158.012 187.9C158.306 187.902 158.598 187.894 158.889 187.884Z" fill="#844719"/>
<path d="M175.137 170.096C170.891 170.076 169.274 165.526 164.309 165.564C162.654 165.568 160.625 166.083 158 167.451C156.334 166.582 154.909 166.059 153.667 165.79C154.218 173.638 156.225 181.083 159.419 187.858C159.592 187.849 159.766 187.84 159.939 187.827C160.013 187.822 160.086 187.815 160.16 187.809C160.438 187.786 160.715 187.759 160.991 187.727C161.049 187.72 161.107 187.712 161.166 187.705C161.402 187.675 161.637 187.642 161.871 187.606C161.947 187.594 162.024 187.583 162.1 187.571C162.355 187.53 162.608 187.483 162.86 187.434C162.955 187.416 163.05 187.397 163.144 187.378C163.389 187.327 163.633 187.274 163.875 187.217C163.968 187.194 164.061 187.171 164.154 187.147C164.34 187.101 164.526 187.052 164.711 187.001C164.826 186.97 164.941 186.938 165.056 186.905C165.258 186.846 165.46 186.785 165.661 186.721C165.773 186.685 165.885 186.65 165.997 186.613C166.21 186.542 166.423 186.468 166.634 186.392C166.751 186.349 166.867 186.305 166.983 186.261C167.126 186.207 167.269 186.151 167.411 186.094C167.585 186.024 167.759 185.952 167.932 185.879C168.062 185.823 168.192 185.767 168.32 185.71C168.448 185.653 168.574 185.596 168.7 185.537C168.884 185.451 169.066 185.364 169.247 185.274C169.38 185.208 169.512 185.14 169.644 185.072C169.743 185.021 169.84 184.969 169.937 184.917C170.151 184.802 170.364 184.684 170.574 184.564C170.655 184.517 170.736 184.471 170.816 184.424C171.062 184.279 171.306 184.13 171.546 183.977C171.596 183.946 171.645 183.916 171.694 183.884C171.838 183.791 171.982 183.697 172.125 183.601C172.164 183.574 172.203 183.547 172.242 183.52C172.391 183.419 172.542 183.32 172.689 183.215L172.718 183.188C174.342 182.027 175.823 180.679 177.13 179.175L177.165 179.143C180.348 175.466 182.491 170.864 183.136 165.794C183.138 165.772 183.14 165.75 183.143 165.728C183.14 165.731 183.138 165.734 183.136 165.737C183.138 165.715 183.14 165.694 183.143 165.673C181.189 168.152 178.567 170.089 175.137 170.096Z" fill="#A06335"/>
<path d="M171.769 106.065C166.913 103.629 162.729 103.178 162.729 103.178C156.22 102.28 148.083 104.929 143.14 107.859C140.939 106.326 138.266 105.425 135.381 105.425C127.87 105.425 121.781 111.514 121.781 119.025C121.781 125.644 126.511 131.404 132.775 132.62C132.775 132.62 148.605 135.553 163.668 127.111C178.732 118.668 183.338 134.867 183.338 139.182C183.338 139.182 184.502 138.585 186.083 137.725C187.999 122.702 182.813 114.155 176.845 109.321" fill="#935B2A"/>
<path d="M141.671 129.475C135.406 128.259 130.676 122.499 130.676 115.879C130.676 111.678 132.582 107.923 135.575 105.429C135.51 105.428 135.446 105.425 135.381 105.425C127.87 105.425 121.781 111.514 121.781 119.025C121.781 125.644 126.512 131.404 132.776 132.62C132.776 132.62 146.808 135.218 161.021 128.476C150.378 131.086 141.671 129.475 141.671 129.475Z" fill="#844719"/>
<path d="M163.86 127.007C178.77 118.81 183.338 134.885 183.338 139.182C183.338 139.182 184.502 138.584 186.083 137.725C187.771 124.488 183.946 116.281 178.93 111.21C173.028 115.545 167.919 120.896 163.86 127.007Z" fill="#A06335"/>
<path d="M185.025 191.733H175.028H174.63H171.504H168.841V192.619H168.839C168.794 195.594 163.959 197.999 157.999 197.999C152.04 197.999 147.204 195.594 147.159 192.619H147.157V191.733H144.495H141.369H140.971H130.974C120.142 191.733 111.362 200.515 111.362 211.346V214.02C111.362 215.666 112.696 217 114.342 217H131.988H138.072H201.658C203.303 217 204.637 215.666 204.637 214.02V211.346C204.638 200.515 195.857 191.733 185.025 191.733Z" fill="#3CB5D6"/>
<path d="M149.319 167.635C148.556 168.481 148.122 169.45 148.122 170.48C148.122 173.771 152.545 176.439 158 176.439C163.455 176.439 167.877 173.771 167.877 170.48C167.877 169.45 167.444 168.481 166.681 167.635H149.319Z" fill="#FF6342"/>
<path d="M158.003 161.83C156.974 161.83 156.14 160.996 156.14 159.968V155.333C156.14 154.304 156.974 153.47 158.003 153.47C159.031 153.47 159.865 154.304 159.865 155.333V159.968C159.865 160.996 159.031 161.83 158.003 161.83Z" fill="#DDAC64"/>
<path d="M150.755 146.086C150.394 146.086 150.029 145.981 149.708 145.762C145.628 142.981 141.324 145.243 141.143 145.34C140.241 145.827 139.112 145.495 138.621 144.596C138.129 143.697 138.452 142.572 139.349 142.076C139.61 141.932 145.803 138.592 151.806 142.684C152.656 143.264 152.875 144.422 152.296 145.272C151.935 145.801 151.35 146.086 150.755 146.086Z" fill="#7F481F"/>
<path d="M165.244 146.086C164.649 146.086 164.065 145.801 163.704 145.273C163.125 144.423 163.344 143.264 164.194 142.685C170.197 138.593 176.39 141.932 176.651 142.077C177.551 142.574 177.877 143.707 177.379 144.607C176.883 145.505 175.754 145.831 174.856 145.34C174.651 145.23 170.36 142.989 166.292 145.762C165.971 145.981 165.606 146.086 165.244 146.086Z" fill="#7F481F"/>
<path d="M172.291 166.146C172.147 166.017 171.937 165.99 171.765 166.081L171.602 166.167C171.59 166.173 171.577 166.179 171.564 166.186L171.338 166.29L171.249 166.327C171.219 166.34 171.189 166.351 171.161 166.362L171.121 166.377C171.102 166.385 171.084 166.391 171.065 166.398L170.852 166.469L170.805 166.483C170.789 166.488 170.771 166.494 170.755 166.498L170.701 166.513C170.681 166.519 170.663 166.523 170.644 166.528L170.59 166.542C170.572 166.546 170.553 166.551 170.536 166.555L170.479 166.568C170.46 166.572 170.441 166.576 170.421 166.58L170.249 166.612C170.225 166.616 170.2 166.62 170.172 166.624C170.155 166.627 170.138 166.629 170.12 166.631C170.085 166.636 170.05 166.64 170.013 166.645L169.832 166.66C169.811 166.662 169.789 166.664 169.772 166.665L169.702 166.668C169.682 166.669 169.661 166.669 169.64 166.67C169.619 166.67 169.599 166.671 169.578 166.671L169.51 166.671C169.49 166.671 169.469 166.671 169.446 166.671C169.424 166.671 169.401 166.67 169.377 166.669C169.356 166.669 169.336 166.667 169.318 166.667L169.243 166.662C169.223 166.661 169.202 166.66 169.18 166.658C169.156 166.656 169.131 166.654 169.106 166.652L169.043 166.645C169.022 166.643 168.999 166.641 168.976 166.638L168.906 166.629C168.86 166.623 168.815 166.616 168.775 166.609L168.724 166.6C168.692 166.595 168.66 166.589 168.626 166.582C168.612 166.579 168.599 166.576 168.584 166.573L168.558 166.567C168.533 166.562 168.508 166.557 168.481 166.55L168.416 166.535C168.389 166.528 168.362 166.521 168.336 166.514L168.268 166.496C168.242 166.488 168.214 166.48 168.186 166.472C168.165 166.466 168.142 166.459 168.12 166.452C168.092 166.443 168.064 166.434 168.035 166.425C168.014 166.418 167.991 166.41 167.968 166.402C167.94 166.393 167.912 166.382 167.883 166.372L167.874 166.368C167.854 166.361 167.835 166.354 167.815 166.346C167.787 166.336 167.759 166.324 167.732 166.314L167.661 166.286C167.63 166.272 167.598 166.259 167.564 166.244L167.506 166.219C167.466 166.201 167.426 166.182 167.384 166.162L167.349 166.145C167.301 166.122 167.253 166.098 167.204 166.073L165.787 165.142C165.716 165.093 165.649 165.049 165.58 165.005L165.475 164.939C165.454 164.926 165.433 164.913 165.412 164.901C165.389 164.886 165.365 164.873 165.342 164.859L165.237 164.798C165.212 164.783 165.187 164.77 165.163 164.757L165.063 164.701C165.038 164.688 165.012 164.675 164.987 164.661L164.891 164.612C164.833 164.582 164.776 164.555 164.714 164.526L164.649 164.496C164.615 164.48 164.581 164.464 164.543 164.448L164.453 164.409C164.427 164.398 164.401 164.388 164.375 164.377L164.276 164.338C164.252 164.328 164.228 164.319 164.205 164.31C164.184 164.302 164.163 164.294 164.145 164.288L164.106 164.274C164.082 164.265 164.059 164.256 164.031 164.247L163.957 164.222C163.927 164.211 163.896 164.201 163.867 164.192C163.845 164.185 163.822 164.178 163.8 164.171L163.789 164.167C163.758 164.158 163.728 164.149 163.699 164.141C163.678 164.135 163.657 164.128 163.633 164.122L163.618 164.118C163.59 164.11 163.561 164.102 163.533 164.095C163.506 164.088 163.481 164.081 163.454 164.074C163.425 164.067 163.396 164.06 163.364 164.053L163.288 164.036C163.26 164.029 163.23 164.023 163.202 164.017C163.176 164.011 163.151 164.007 163.124 164.001C163.095 163.996 163.066 163.99 163.039 163.985C163.013 163.981 162.987 163.976 162.963 163.972C162.934 163.967 162.905 163.962 162.873 163.958L162.801 163.946C162.772 163.942 162.743 163.939 162.716 163.935L162.705 163.934C162.683 163.931 162.662 163.928 162.643 163.926C162.613 163.922 162.584 163.92 162.555 163.917C162.53 163.914 162.507 163.912 162.485 163.91C162.464 163.908 162.442 163.906 162.42 163.905L162.327 163.898C162.301 163.896 162.276 163.895 162.25 163.893L162.174 163.889C162.147 163.888 162.122 163.888 162.099 163.887L162.021 163.885C161.996 163.884 161.972 163.884 161.948 163.884H161.873C161.826 163.884 161.784 163.885 161.744 163.886L161.724 163.887C161.669 163.888 161.62 163.891 161.564 163.893L161.539 163.895C161.501 163.898 161.463 163.9 161.42 163.904L161.375 163.907C161.343 163.911 161.311 163.913 161.277 163.917L161.215 163.924C161.19 163.926 161.165 163.929 161.135 163.932L161.07 163.941C161.046 163.944 161.023 163.947 160.996 163.951L160.922 163.963C160.901 163.966 160.881 163.969 160.854 163.974L160.669 164.009L160.537 164.036C160.512 164.042 160.487 164.048 160.46 164.054L160.409 164.066C160.382 164.073 160.358 164.079 160.333 164.085L160.278 164.1C160.255 164.106 160.231 164.113 160.202 164.121L160.033 164.171C160.009 164.178 159.986 164.186 159.957 164.196L159.797 164.25C159.774 164.258 159.751 164.267 159.728 164.275L159.681 164.292C159.658 164.301 159.634 164.31 159.613 164.319L159.571 164.335C159.545 164.345 159.521 164.356 159.5 164.364L159.463 164.379C159.435 164.391 159.408 164.403 159.382 164.414L159.365 164.422C159.288 164.456 159.22 164.488 159.151 164.522L159.145 164.525C159.116 164.54 159.087 164.554 159.055 164.571L158.967 164.618C158.964 164.619 158.962 164.62 158.959 164.622L158.845 164.686C158.826 164.697 158.807 164.708 158.785 164.721L158.761 164.736C158.741 164.748 158.723 164.759 158.706 164.769C158.7 164.773 158.694 164.777 158.688 164.781L158.401 164.978C158.395 164.982 158.388 164.986 158.382 164.991C158.367 165.003 158.353 165.013 158.335 165.028L158.257 165.091C158.245 165.101 158.231 165.112 158.213 165.128L158.153 165.182C158.151 165.184 158.149 165.186 158.147 165.187C158.134 165.2 158.122 165.211 158.111 165.222L158.102 165.231C158.085 165.247 158.073 165.26 158.062 165.272L158.052 165.282C158.041 165.293 158.03 165.305 158.021 165.316L158.008 165.331C158.005 165.333 158.003 165.336 158.001 165.339C157.998 165.336 157.995 165.333 157.992 165.329L157.986 165.322C157.975 165.309 157.963 165.296 157.947 165.279L157.936 165.268C157.928 165.26 157.917 165.248 157.905 165.236C157.902 165.234 157.9 165.232 157.898 165.23L157.888 165.22C157.878 165.21 157.866 165.199 157.849 165.183L157.785 165.126C157.771 165.113 157.758 165.102 157.745 165.092C157.743 165.089 157.74 165.087 157.738 165.085L157.665 165.026C157.648 165.013 157.635 165.003 157.62 164.992C157.614 164.987 157.607 164.983 157.601 164.978L157.314 164.782C157.309 164.778 157.303 164.774 157.297 164.771C157.278 164.759 157.26 164.748 157.239 164.736L157.127 164.669C157.106 164.657 157.086 164.646 157.065 164.635L157.035 164.618C157.013 164.606 156.99 164.595 156.969 164.583L156.943 164.569C156.914 164.555 156.885 164.54 156.861 164.528L156.848 164.521C156.781 164.488 156.713 164.456 156.64 164.424L156.619 164.415C156.593 164.403 156.565 164.391 156.532 164.378L156.506 164.367C156.479 164.355 156.455 164.345 156.426 164.334L156.389 164.319C156.365 164.31 156.342 164.301 156.314 164.29L156.274 164.275C156.25 164.267 156.228 164.258 156.198 164.248L156.041 164.194C156.015 164.186 155.991 164.178 155.961 164.169L155.794 164.119C155.769 164.113 155.746 164.106 155.719 164.099L155.667 164.085C155.642 164.079 155.618 164.072 155.593 164.066L155.538 164.053C155.513 164.047 155.488 164.042 155.463 164.036L155.333 164.008C155.33 164.008 155.328 164.007 155.325 164.007L155.138 163.972C155.116 163.968 155.093 163.965 155.07 163.961L155 163.95C154.974 163.946 154.948 163.943 154.919 163.939L154.862 163.932C154.836 163.928 154.811 163.926 154.786 163.923L154.722 163.916C154.689 163.913 154.658 163.91 154.628 163.907L154.576 163.903C154.538 163.9 154.499 163.897 154.464 163.895L154.428 163.893C154.38 163.89 154.33 163.888 154.278 163.886L154.257 163.886C154.217 163.885 154.174 163.884 154.126 163.884H154.052C154.028 163.884 154.004 163.884 153.976 163.884L153.902 163.886C153.877 163.887 153.852 163.888 153.823 163.889L153.751 163.893C153.724 163.895 153.698 163.895 153.668 163.897L153.58 163.904C153.559 163.906 153.537 163.907 153.514 163.91C153.492 163.912 153.468 163.914 153.447 163.916C153.417 163.919 153.387 163.922 153.358 163.926L153.287 163.934C153.256 163.939 153.227 163.942 153.194 163.947L153.126 163.957C153.096 163.962 153.067 163.966 153.038 163.971C153.012 163.975 152.987 163.98 152.965 163.984C152.934 163.989 152.905 163.995 152.874 164.001C152.849 164.005 152.824 164.011 152.799 164.016C152.77 164.022 152.741 164.028 152.708 164.035L152.633 164.052C152.604 164.059 152.575 164.066 152.545 164.074C152.52 164.08 152.494 164.087 152.47 164.093C152.439 164.101 152.41 164.109 152.38 164.117L152.367 164.121C152.346 164.127 152.324 164.133 152.303 164.139C152.272 164.148 152.242 164.157 152.212 164.166L152.2 164.17C152.178 164.177 152.156 164.184 152.134 164.191C152.104 164.2 152.074 164.21 152.043 164.221L151.967 164.247C151.94 164.256 151.914 164.266 151.888 164.275L151.795 164.309C151.772 164.318 151.749 164.327 151.726 164.336L151.624 164.377C151.598 164.387 151.572 164.398 151.546 164.41L151.455 164.449C151.42 164.464 151.386 164.479 151.355 164.494L151.283 164.527C151.225 164.554 151.168 164.582 151.106 164.613L151.013 164.661C150.988 164.674 150.963 164.687 150.933 164.703L150.839 164.755C150.814 164.769 150.789 164.783 150.759 164.8L150.659 164.858C150.636 164.872 150.612 164.886 150.589 164.9C150.568 164.913 150.547 164.926 150.526 164.939L150.422 165.004C150.353 165.048 150.288 165.091 150.222 165.135L148.787 166.077C148.742 166.1 148.698 166.122 148.659 166.141L148.613 166.163C148.575 166.181 148.535 166.2 148.495 166.217L148.433 166.245C148.403 166.258 148.371 166.271 148.344 166.283L148.275 166.311C148.242 166.324 148.214 166.335 148.187 166.345L148.117 166.371C148.089 166.381 148.061 166.391 148.034 166.401C148.011 166.409 147.988 166.416 147.964 166.424C147.937 166.433 147.91 166.442 147.884 166.45C147.86 166.458 147.837 166.465 147.812 166.472C147.787 166.48 147.76 166.487 147.733 166.495L147.723 166.498C147.704 166.503 147.685 166.509 147.665 166.513C147.639 166.52 147.612 166.527 147.584 166.534L147.519 166.55C147.495 166.556 147.469 166.561 147.443 166.566L147.375 166.581C147.342 166.587 147.309 166.594 147.274 166.6L147.234 166.607C147.187 166.615 147.141 166.622 147.102 166.627L147.025 166.637C147.002 166.639 146.98 166.642 146.956 166.645L146.893 166.651C146.87 166.653 146.846 166.655 146.82 166.657C146.799 166.659 146.778 166.66 146.757 166.661C146.734 166.663 146.71 166.664 146.687 166.666C146.665 166.666 146.644 166.668 146.622 166.668C146.6 166.668 146.577 166.67 146.552 166.67C146.532 166.67 146.512 166.67 146.493 166.67L146.361 166.669C146.339 166.668 146.317 166.668 146.297 166.666L146.236 166.664C146.213 166.662 146.191 166.661 146.167 166.659L145.986 166.643C145.952 166.639 145.916 166.635 145.882 166.63L145.825 166.622C145.8 166.618 145.775 166.615 145.756 166.611L145.684 166.599C145.668 166.596 145.651 166.593 145.632 166.589L145.526 166.568L145.249 166.498C145.231 166.493 145.213 166.488 145.192 166.481C145.178 166.478 145.164 166.473 145.149 166.469L144.938 166.398L144.841 166.362C144.812 166.351 144.782 166.339 144.755 166.328L144.437 166.185L144.236 166.08C144.064 165.99 143.854 166.016 143.71 166.146C143.565 166.275 143.517 166.482 143.588 166.662C145.239 170.833 148.026 172.948 151.874 172.948H151.905C154.946 172.938 157.652 171.527 158.001 171.337C158.347 171.524 161.05 172.938 164.098 172.948H164.128C164.129 172.948 164.129 172.948 164.13 172.948C167.977 172.948 170.765 170.833 172.414 166.662C172.484 166.482 172.436 166.276 172.291 166.146Z" fill="#874C21"/>
<path d="M171.765 166.081L171.602 166.167C171.59 166.173 171.577 166.179 171.564 166.186L171.338 166.29L171.249 166.327C171.219 166.34 171.189 166.352 171.161 166.362L171.121 166.377C171.102 166.385 171.084 166.392 171.065 166.398L170.852 166.469L170.805 166.484C170.789 166.489 170.771 166.494 170.755 166.498L170.701 166.513C170.681 166.519 170.663 166.523 170.644 166.529L170.59 166.542C170.572 166.547 170.553 166.551 170.536 166.555L170.479 166.568C170.46 166.572 170.441 166.576 170.421 166.58L170.249 166.612C170.225 166.616 170.2 166.62 170.172 166.624C170.155 166.627 170.138 166.629 170.12 166.631C170.085 166.636 170.05 166.641 170.013 166.645L169.832 166.66C169.811 166.662 169.789 166.664 169.772 166.665L169.702 166.668C169.682 166.669 169.661 166.67 169.64 166.67C169.619 166.671 169.599 166.671 169.578 166.671L169.51 166.672C169.49 166.672 169.469 166.672 169.446 166.671C169.424 166.671 169.401 166.67 169.377 166.669C169.356 166.669 169.336 166.668 169.318 166.667L169.243 166.662C169.223 166.661 169.202 166.66 169.18 166.658C169.156 166.656 169.131 166.654 169.106 166.652L169.043 166.646C169.022 166.644 168.999 166.641 168.976 166.638L168.906 166.629C168.86 166.623 168.815 166.616 168.775 166.609L168.724 166.601C168.692 166.595 168.66 166.589 168.626 166.582C168.612 166.579 168.599 166.576 168.584 166.573L168.558 166.568C168.533 166.562 168.508 166.557 168.481 166.551L168.416 166.535C168.389 166.529 168.362 166.522 168.336 166.514L168.268 166.496C168.242 166.489 168.214 166.481 168.186 166.472C168.165 166.466 168.142 166.459 168.12 166.452C168.092 166.444 168.064 166.435 168.035 166.425C168.014 166.418 167.991 166.41 167.968 166.402C167.94 166.393 167.912 166.383 167.883 166.372L167.874 166.368C167.854 166.361 167.835 166.354 167.815 166.346C167.787 166.336 167.759 166.325 167.732 166.314L167.661 166.286C167.63 166.273 167.598 166.259 167.564 166.244L167.506 166.219C167.466 166.201 167.426 166.182 167.384 166.163L167.349 166.146C167.301 166.122 167.253 166.098 167.204 166.073L165.787 165.142C165.716 165.093 165.649 165.05 165.58 165.005L165.475 164.94C165.454 164.926 165.433 164.913 165.412 164.901C165.389 164.887 165.365 164.873 165.342 164.859L165.237 164.798C165.212 164.784 165.187 164.77 165.163 164.757L165.063 164.701C165.038 164.688 165.012 164.675 164.987 164.661L164.891 164.612C164.833 164.583 164.776 164.555 164.714 164.526L164.649 164.496C164.615 164.48 164.581 164.465 164.543 164.448L164.453 164.41C164.427 164.399 164.401 164.388 164.375 164.377L164.276 164.338C164.252 164.329 164.228 164.319 164.205 164.31C164.184 164.302 164.163 164.295 164.145 164.288L164.106 164.274C164.082 164.265 164.059 164.257 164.031 164.247L163.957 164.222C163.927 164.212 163.896 164.202 163.867 164.192C163.845 164.185 163.822 164.178 163.8 164.171L163.789 164.168C163.758 164.158 163.728 164.15 163.699 164.141C163.678 164.135 163.657 164.129 163.633 164.122L163.618 164.118C163.59 164.11 163.561 164.103 163.533 164.095C163.506 164.088 163.481 164.081 163.454 164.074C163.425 164.068 163.396 164.06 163.364 164.053L163.288 164.036C163.26 164.03 163.23 164.023 163.202 164.017C163.176 164.012 163.151 164.007 163.124 164.001C163.095 163.996 163.066 163.99 163.039 163.985C163.013 163.981 162.987 163.976 162.963 163.972C162.934 163.967 162.905 163.963 162.873 163.958L162.801 163.947C162.772 163.943 162.743 163.939 162.716 163.936L162.705 163.934C162.683 163.931 162.662 163.928 162.643 163.926C162.613 163.922 162.584 163.92 162.555 163.917C162.53 163.915 162.507 163.912 162.485 163.91C162.464 163.908 162.442 163.906 162.42 163.905L162.327 163.898C162.301 163.896 162.276 163.895 162.25 163.894L162.174 163.889C162.147 163.889 162.122 163.888 162.099 163.887L162.021 163.885C161.996 163.885 161.972 163.884 161.948 163.884H161.873C161.826 163.885 161.784 163.886 161.744 163.887L161.724 163.887C161.669 163.889 161.62 163.891 161.564 163.894L161.539 163.895C161.501 163.898 161.463 163.9 161.42 163.904L161.375 163.907C161.343 163.911 161.311 163.913 161.277 163.917L161.215 163.924C161.19 163.926 161.165 163.929 161.135 163.933L161.07 163.941C161.046 163.944 161.023 163.947 160.996 163.952L160.922 163.963C160.901 163.967 160.881 163.969 160.854 163.975L160.669 164.009L160.537 164.036C160.512 164.042 160.487 164.048 160.46 164.054L160.409 164.067C160.382 164.073 160.358 164.08 160.333 164.086L160.278 164.1C160.255 164.107 160.231 164.113 160.202 164.121L160.033 164.171C160.009 164.178 159.986 164.187 159.957 164.196L159.797 164.25C159.774 164.258 159.751 164.267 159.728 164.275L159.681 164.292C159.658 164.301 159.634 164.311 159.613 164.319L159.571 164.336C159.545 164.346 159.521 164.356 159.5 164.364L159.463 164.38C159.435 164.392 159.408 164.403 159.382 164.415L159.365 164.422C159.288 164.457 159.22 164.488 159.151 164.523L159.145 164.525C159.116 164.54 159.087 164.555 159.055 164.571L158.967 164.618C158.964 164.619 158.962 164.621 158.959 164.622L158.845 164.686C158.826 164.697 158.807 164.708 158.785 164.721L158.761 164.736C158.741 164.748 158.723 164.759 158.706 164.77C158.7 164.774 158.694 164.778 158.688 164.781L158.401 164.978C158.395 164.982 158.388 164.986 158.382 164.991C158.367 165.003 158.353 165.013 158.335 165.028L158.257 165.091C158.245 165.101 158.231 165.113 158.213 165.128L158.153 165.182C158.151 165.184 158.149 165.186 158.147 165.188C158.134 165.2 158.122 165.211 158.111 165.222L158.102 165.231C158.085 165.248 158.073 165.261 158.062 165.272L158.052 165.282C158.041 165.294 158.03 165.306 158.021 165.316L158.008 165.331C158.005 165.334 158.003 165.336 158.001 165.339C157.998 165.336 157.995 165.333 157.992 165.33L157.986 165.322C157.975 165.309 157.963 165.297 157.947 165.279L157.936 165.268C157.928 165.26 157.917 165.249 157.905 165.236C157.902 165.234 157.9 165.232 157.898 165.23L157.888 165.22C157.878 165.21 157.866 165.199 157.849 165.183L157.785 165.126C157.771 165.113 157.758 165.103 157.745 165.092C157.743 165.09 157.74 165.088 157.738 165.086L157.665 165.027C157.648 165.014 157.635 165.003 157.62 164.992C157.614 164.988 157.607 164.983 157.601 164.978L157.314 164.782C157.309 164.778 157.303 164.775 157.297 164.771C157.278 164.759 157.26 164.748 157.239 164.736L157.127 164.67C157.106 164.658 157.086 164.646 157.065 164.635L157.035 164.619C157.013 164.607 156.99 164.595 156.969 164.584L156.943 164.569C156.914 164.555 156.885 164.54 156.861 164.528L156.848 164.522C156.781 164.489 156.713 164.457 156.64 164.424L156.619 164.415C156.593 164.403 156.565 164.392 156.532 164.378L156.506 164.367C156.479 164.356 156.455 164.346 156.426 164.334L156.389 164.32C156.365 164.31 156.342 164.301 156.314 164.29L156.274 164.275C156.25 164.267 156.228 164.258 156.198 164.248L156.041 164.194C156.015 164.186 155.991 164.178 155.961 164.169L155.794 164.12C155.769 164.113 155.746 164.106 155.719 164.099L155.667 164.085C155.642 164.079 155.618 164.073 155.593 164.066L155.538 164.053C155.513 164.047 155.488 164.042 155.463 164.036L155.333 164.009C155.33 164.008 155.328 164.008 155.325 164.007L155.138 163.972C155.116 163.969 155.093 163.965 155.07 163.961L155 163.95C154.974 163.946 154.948 163.943 154.919 163.939L154.862 163.932C154.836 163.928 154.811 163.926 154.786 163.923L154.722 163.916C154.689 163.913 154.658 163.91 154.628 163.907L154.576 163.903C154.538 163.9 154.499 163.897 154.464 163.895L154.428 163.893C154.38 163.89 154.33 163.888 154.278 163.887L154.257 163.886C154.217 163.885 154.174 163.884 154.126 163.884H154.052C154.028 163.884 154.004 163.884 153.976 163.885L153.902 163.887C153.877 163.887 153.852 163.888 153.823 163.889L153.751 163.893C153.724 163.895 153.698 163.895 153.668 163.898L153.58 163.904C153.575 163.905 153.57 163.905 153.565 163.906C153.684 166.87 154.007 169.781 154.527 172.624C156.371 172.193 157.757 171.47 158 171.338C158.345 171.525 161.048 172.94 164.097 172.949H164.127C164.128 172.949 164.128 172.949 164.128 172.949C167.976 172.949 170.763 170.834 172.413 166.663C172.484 166.482 172.436 166.276 172.292 166.147C172.147 166.017 171.937 165.99 171.765 166.081Z" fill="#935227"/>
<path d="M116.543 214.02V211.346C116.543 200.515 125.323 191.733 136.155 191.733H130.975C120.143 191.733 111.363 200.515 111.363 211.346V214.02C111.363 215.666 112.697 217 114.342 217H119.522C117.877 217 116.543 215.666 116.543 214.02Z" fill="#189CB2"/>
<path d="M185.025 191.733H175.028H174.63H171.504H168.841V192.619H168.839C168.811 194.513 166.84 196.174 163.875 197.133C169.3 205.32 176.61 212.149 185.188 217H201.658C203.303 217 204.637 215.666 204.637 214.02V211.346C204.638 200.515 195.857 191.733 185.025 191.733Z" fill="#45C4D8"/>
<g clip-path="url(#clip0)">
<path d="M386.286 148.495C385.825 148.092 385.364 147.661 384.908 147.199C373.623 135.793 361.247 139.798 357 144.044C352.753 139.798 340.377 135.793 329.093 147.199C317.809 158.605 304.705 151.446 304.705 151.446C311.621 170.981 331.52 166.855 331.52 166.855L329.7 170.253C356.151 170.253 357 156.42 357 156.42C357 156.42 357.85 170.253 384.301 170.253L382.481 166.855C382.481 166.855 402.38 170.981 409.296 151.446C409.296 151.446 400.496 156.253 391.11 151.713" fill="#945C2B"/>
<path d="M344.549 167.597C336.683 167.597 330.307 161.22 330.307 153.355C330.307 150.206 331.331 147.298 333.06 144.94C332.149 145.642 331.229 146.44 330.308 147.349C328.436 149.482 326.048 150.973 324.142 151.926L323.848 152.122L323.848 152.122L323.848 152.123L323.823 152.134L323.503 152.287C323.501 152.288 323.499 152.289 323.497 152.29L323.49 152.293C323.397 152.336 323.291 152.384 323.185 152.43L322.999 152.512C322.866 152.569 322.724 152.628 322.566 152.692L322.509 152.715C322.442 152.742 322.373 152.768 322.303 152.795C322.216 152.828 322.13 152.86 322.046 152.891L322.038 152.894C322.038 152.894 322.037 152.894 322.036 152.895L321.927 152.933L321.869 152.954C321.76 152.993 321.653 153.03 321.554 153.064L321.551 153.065C321.549 153.065 321.547 153.066 321.545 153.067L321.441 153.101L321.36 153.128C321.358 153.128 321.356 153.129 321.354 153.13C321.272 153.157 321.184 153.184 321.088 153.214C321.077 153.217 321.065 153.221 321.055 153.225L321.019 153.236L320.86 153.284C320.78 153.307 320.692 153.331 320.606 153.356C320.581 153.363 320.555 153.371 320.529 153.377L320.4 153.413L320.377 153.42C320.326 153.433 320.274 153.447 320.221 153.46C320.12 153.487 320.02 153.512 319.926 153.535L319.915 153.537C319.915 153.537 319.915 153.537 319.915 153.537L319.798 153.564C319.751 153.575 319.709 153.584 319.664 153.594C319.59 153.611 319.515 153.629 319.446 153.643L319.442 153.644C319.442 153.645 319.441 153.645 319.44 153.645L319.261 153.682C319.246 153.685 319.23 153.688 319.215 153.691C319.131 153.708 319.047 153.725 318.966 153.74L318.781 153.774C318.678 153.793 318.576 153.81 318.474 153.827L318.312 153.853C318.31 153.853 318.308 153.853 318.306 153.853L318.302 153.854C318.182 153.872 318.053 153.891 317.923 153.908L317.898 153.911L317.853 153.918C317.851 153.918 317.849 153.918 317.847 153.918L317.836 153.92C317.702 153.937 317.556 153.954 317.412 153.969C317.409 153.969 317.406 153.97 317.404 153.97L317.4 153.97C317.399 153.97 317.398 153.97 317.397 153.97L317.247 153.985C317.232 153.987 317.216 153.988 317.201 153.989C317.115 153.998 317.028 154.006 316.947 154.013L316.815 154.023L316.765 154.027C316.707 154.031 316.646 154.035 316.585 154.039C316.552 154.041 316.518 154.044 316.485 154.046L316.315 154.055C316.314 154.055 316.313 154.055 316.312 154.055H316.31C316.212 154.061 316.108 154.065 316.005 154.068L315.971 154.07L315.875 154.073C315.872 154.074 315.87 154.074 315.866 154.074H315.865C315.852 154.074 315.838 154.074 315.824 154.074C315.696 154.078 315.569 154.081 315.45 154.082L315.421 154.082H315.416H315.414H315.411L315.378 154.082L315.243 154.082H315.234C315.234 154.082 315.234 154.082 315.234 154.082H315.232C315.222 154.082 315.211 154.082 315.2 154.082C315.138 154.082 315.075 154.082 315.019 154.081L315.013 154.081C315.013 154.081 315.013 154.081 315.013 154.081L314.985 154.081L314.861 154.079C314.767 154.077 314.675 154.075 314.587 154.072H314.587C314.585 154.072 314.584 154.072 314.582 154.072L314.519 154.069L314.428 154.066C314.426 154.066 314.424 154.066 314.422 154.066H314.421C314.41 154.066 314.398 154.065 314.388 154.064C314.308 154.061 314.229 154.058 314.152 154.053L314.007 154.045L314.001 154.045C313.894 154.039 313.782 154.031 313.671 154.023L313.624 154.019L313.598 154.017C313.598 154.017 313.597 154.017 313.596 154.017L313.592 154.017C313.522 154.011 313.447 154.004 313.374 153.998C313.319 153.993 313.262 153.989 313.209 153.983L313.205 153.983C313.204 153.983 313.202 153.983 313.2 153.983L313.149 153.977L313.08 153.97C312.988 153.961 312.896 153.951 312.812 153.942L312.773 153.937L312.66 153.923C312.634 153.92 312.607 153.916 312.581 153.913C312.525 153.906 312.469 153.899 312.416 153.892L312.353 153.884L312.267 153.872C312.197 153.862 312.124 153.851 312.051 153.84C312.037 153.838 312.023 153.836 312.008 153.834L311.896 153.817C311.894 153.817 311.892 153.817 311.89 153.817L311.887 153.816C311.772 153.798 311.651 153.778 311.53 153.757L311.466 153.746C311.413 153.736 311.362 153.727 311.31 153.717C311.266 153.709 311.219 153.701 311.176 153.693L311.172 153.692C311.172 153.692 311.171 153.692 311.17 153.692L311.049 153.668C310.971 153.653 310.894 153.638 310.817 153.622L310.687 153.594C310.613 153.579 310.538 153.562 310.449 153.542L310.391 153.529L310.348 153.52C310.34 153.518 310.332 153.516 310.324 153.514C310.245 153.496 310.164 153.477 310.075 153.456L310.062 153.452L310.02 153.443C310.019 153.442 310.018 153.442 310.018 153.442L310.013 153.441C309.913 153.417 309.808 153.39 309.706 153.364L309.393 153.281L308.715 153.084L308.699 153.079C308.697 153.078 308.696 153.078 308.694 153.077L308.682 153.074C308.606 153.05 308.515 153.022 308.43 152.994L308.4 152.984C308.316 152.957 308.243 152.933 308.174 152.91C308.17 152.909 308.167 152.908 308.164 152.907L308.09 152.882L308.086 152.881C307.66 152.737 307.189 152.858 306.885 153.189C306.882 153.192 306.879 153.195 306.876 153.198C306.841 153.236 306.81 153.277 306.782 153.319C306.779 153.323 306.776 153.327 306.773 153.331C306.687 153.462 306.631 153.608 306.604 153.76C306.602 153.769 306.599 153.779 306.598 153.789C306.594 153.811 306.594 153.834 306.592 153.857C306.575 154.051 306.605 154.25 306.691 154.435C312.021 165.923 322.366 167.639 328.058 167.639C330.679 167.639 332.451 167.277 332.459 167.275H332.46H332.46L331.595 168.89C331.595 168.89 331.595 168.892 331.594 168.892L331.551 168.974C331.409 169.238 331.38 169.544 331.461 169.824C331.463 169.833 331.466 169.841 331.469 169.85C331.497 169.939 331.535 170.026 331.586 170.107C331.608 170.144 331.633 170.178 331.66 170.211C331.669 170.224 331.68 170.235 331.69 170.247C331.776 170.348 331.878 170.431 331.991 170.495C332.005 170.503 332.018 170.51 332.031 170.517C332.14 170.573 332.259 170.61 332.382 170.629C332.423 170.636 332.464 170.641 332.506 170.642C332.532 170.643 332.557 170.647 332.583 170.646C343.813 170.34 349.94 167.37 353.217 164.65C350.816 166.497 347.812 167.597 344.549 167.597Z" fill="#844719"/>
<path d="M409.272 154.187C409.275 154.172 409.279 154.158 409.281 154.144C409.288 154.099 409.293 154.054 409.295 154.008C409.295 154.006 409.295 154.003 409.295 154.001C409.297 153.953 409.296 153.905 409.291 153.857C409.289 153.834 409.289 153.811 409.286 153.789C409.286 153.786 409.285 153.784 409.285 153.782C409.284 153.774 409.281 153.767 409.28 153.759C409.267 153.691 409.248 153.624 409.224 153.559C409.219 153.547 409.215 153.534 409.209 153.522C409.183 153.456 409.151 153.392 409.111 153.331C409.108 153.327 409.104 153.323 409.102 153.319C409.073 153.277 409.042 153.236 409.008 153.198C409.004 153.194 409 153.19 408.996 153.186C408.844 153.022 408.652 152.91 408.444 152.856C408.442 152.856 408.439 152.856 408.437 152.855C408.387 152.843 408.337 152.833 408.285 152.828C408.274 152.827 408.262 152.827 408.251 152.826C408.209 152.823 408.166 152.82 408.123 152.822C408.099 152.822 408.074 152.827 408.05 152.829C408.02 152.832 407.99 152.834 407.96 152.839C407.905 152.849 407.851 152.863 407.798 152.881L407.719 152.907C407.713 152.909 407.707 152.911 407.701 152.913C407.634 152.936 407.564 152.959 407.484 152.985L407.453 152.995C407.368 153.022 407.277 153.051 407.201 153.074L407.188 153.078C407.187 153.078 407.185 153.079 407.184 153.079L407.17 153.083L406.49 153.28L406.177 153.364C406.075 153.39 405.97 153.417 405.87 153.441L405.865 153.442C405.864 153.442 405.863 153.442 405.862 153.442L405.842 153.447L405.808 153.456C405.719 153.477 405.639 153.496 405.561 153.514C405.56 153.514 405.559 153.514 405.558 153.514C405.551 153.516 405.543 153.518 405.535 153.52L405.492 153.529L405.434 153.542C405.345 153.562 405.269 153.578 405.196 153.594L405.065 153.622C404.989 153.637 404.911 153.653 404.834 153.668L404.712 153.692C404.711 153.692 404.711 153.692 404.71 153.692L404.706 153.693C404.681 153.698 404.653 153.703 404.626 153.707C404.557 153.72 404.488 153.733 404.417 153.746L404.353 153.757C404.232 153.778 404.111 153.798 403.996 153.816L403.993 153.816C403.991 153.817 403.989 153.817 403.987 153.817L403.875 153.834C403.87 153.835 403.866 153.835 403.861 153.836C403.778 153.848 403.695 153.861 403.616 153.872L403.53 153.884L403.467 153.892C403.414 153.899 403.358 153.906 403.302 153.913C403.276 153.916 403.249 153.92 403.223 153.923L403.085 153.94L403.071 153.941C402.986 153.951 402.895 153.961 402.803 153.97L402.733 153.977L402.682 153.982C402.681 153.983 402.679 153.983 402.677 153.983L402.674 153.983C402.651 153.985 402.626 153.987 402.601 153.989C402.496 153.999 402.391 154.009 402.291 154.017L402.287 154.017C402.286 154.017 402.286 154.017 402.285 154.017L402.276 154.018L402.213 154.022C402.101 154.031 401.989 154.038 401.882 154.045L401.876 154.045L401.731 154.053C401.666 154.056 401.598 154.059 401.531 154.062C401.508 154.063 401.484 154.064 401.462 154.065H401.461C401.458 154.065 401.457 154.065 401.455 154.065L401.363 154.068L401.301 154.071C401.299 154.071 401.298 154.071 401.296 154.071H401.296C401.209 154.074 401.116 154.076 401.021 154.078L400.968 154.079L400.871 154.081C400.87 154.081 400.87 154.081 400.869 154.081L400.864 154.081C400.83 154.081 400.791 154.081 400.754 154.081C400.72 154.081 400.685 154.082 400.652 154.082H400.65C400.65 154.082 400.649 154.082 400.649 154.082H400.64L400.583 154.082L400.501 154.081L400.474 154.082H400.47H400.468H400.463L400.434 154.081C400.332 154.081 400.222 154.078 400.112 154.075C400.082 154.074 400.049 154.074 400.019 154.073H400.018C400.015 154.073 400.012 154.073 400.009 154.073L399.935 154.07L399.88 154.068C399.776 154.064 399.672 154.059 399.574 154.055H399.571C399.571 154.055 399.57 154.055 399.569 154.054L399.4 154.045C399.375 154.043 399.349 154.041 399.324 154.039C399.255 154.035 399.186 154.031 399.119 154.026L399.07 154.022L398.938 154.012C398.856 154.005 398.77 153.997 398.684 153.988C398.669 153.987 398.653 153.986 398.638 153.984L398.487 153.969C398.485 153.969 398.484 153.969 398.482 153.969L398.481 153.969C398.478 153.969 398.476 153.968 398.474 153.968C398.402 153.96 398.33 153.952 398.26 153.944C398.187 153.936 398.117 153.927 398.049 153.919L398.038 153.917C398.036 153.917 398.034 153.917 398.032 153.917L397.995 153.911L397.961 153.906C397.832 153.889 397.703 153.871 397.583 153.853L397.576 153.852C397.575 153.852 397.574 153.851 397.573 153.851L397.411 153.825C397.309 153.808 397.207 153.792 397.104 153.773L396.919 153.739C396.856 153.727 396.79 153.713 396.725 153.7C396.692 153.694 396.657 153.687 396.624 153.68L396.445 153.643C396.444 153.643 396.443 153.643 396.443 153.643L396.439 153.642C396.37 153.627 396.295 153.61 396.222 153.593C396.177 153.583 396.134 153.573 396.087 153.563L395.97 153.536C395.969 153.536 395.968 153.535 395.967 153.535L395.959 153.533C395.942 153.529 395.924 153.524 395.907 153.52C395.826 153.5 395.745 153.48 395.664 153.459C395.664 153.459 395.664 153.459 395.664 153.459C395.612 153.446 395.559 153.432 395.508 153.419L395.446 153.401L395.356 153.376C395.339 153.372 395.323 153.367 395.306 153.362C395.21 153.335 395.114 153.309 395.025 153.282L394.866 153.234L394.83 153.223C394.821 153.22 394.811 153.217 394.801 153.214C394.703 153.184 394.615 153.156 394.531 153.129L394.528 153.128C394.527 153.127 394.525 153.127 394.524 153.127L394.443 153.1L394.339 153.066C394.337 153.065 394.335 153.064 394.334 153.064L394.331 153.063C394.231 153.029 394.124 152.992 394.016 152.953L393.957 152.932L393.848 152.894C393.847 152.893 393.846 152.893 393.844 152.892L393.838 152.89C393.813 152.881 393.786 152.87 393.76 152.861C393.702 152.839 393.644 152.818 393.587 152.796C393.585 152.795 393.583 152.795 393.582 152.794C393.512 152.767 393.443 152.741 393.376 152.714L393.319 152.691C393.161 152.627 393.019 152.568 392.885 152.511L392.699 152.429C392.594 152.383 392.488 152.335 392.395 152.292L392.388 152.289C392.386 152.288 392.384 152.287 392.381 152.286L392.062 152.133L392.037 152.122L392.037 152.121L392.036 152.121L391.743 151.925C389.836 150.972 387.449 149.481 385.576 147.348C382.351 144.164 379.14 142.329 376.245 141.311C376.225 141.305 376.206 141.298 376.186 141.291C375.855 141.176 375.529 141.071 375.207 140.977C375.174 140.967 375.142 140.957 375.109 140.948C375.011 140.92 374.913 140.892 374.816 140.866C374.783 140.857 374.751 140.849 374.718 140.84C374.548 140.795 374.38 140.752 374.212 140.712C374.168 140.701 374.123 140.69 374.079 140.68C373.997 140.66 373.915 140.642 373.833 140.624C373.776 140.612 373.72 140.6 373.663 140.588C373.587 140.572 373.511 140.556 373.435 140.541C373.434 140.541 373.432 140.54 373.431 140.54C373.279 140.51 373.128 140.482 372.979 140.456C372.975 140.455 372.971 140.455 372.967 140.454C372.964 140.454 372.963 140.453 372.96 140.453C372.816 140.428 372.673 140.405 372.531 140.383C372.521 140.382 372.51 140.38 372.5 140.379C372.495 140.378 372.49 140.377 372.485 140.376C372.354 140.357 372.224 140.339 372.095 140.322C372.07 140.319 372.046 140.317 372.022 140.313C371.901 140.298 371.781 140.284 371.663 140.272C371.635 140.269 371.608 140.267 371.58 140.264C371.579 140.264 371.577 140.264 371.575 140.263C371.464 140.252 371.353 140.241 371.243 140.232C371.213 140.23 371.183 140.228 371.154 140.226C371.142 140.225 371.129 140.224 371.117 140.223C371.023 140.216 370.927 140.208 370.834 140.202C370.79 140.2 370.747 140.198 370.704 140.196C370.697 140.196 370.691 140.195 370.684 140.195C370.6 140.19 370.516 140.185 370.433 140.182C370.354 140.179 370.277 140.177 370.199 140.175C370.147 140.173 370.094 140.171 370.043 140.17C369.914 140.168 369.788 140.166 369.663 140.166C369.468 140.166 369.275 140.17 369.083 140.176C369.023 140.178 368.964 140.181 368.905 140.183C368.77 140.188 368.637 140.194 368.504 140.202C368.44 140.206 368.375 140.211 368.311 140.215C368.178 140.224 368.046 140.235 367.914 140.247C367.859 140.252 367.803 140.257 367.748 140.262C367.568 140.281 367.389 140.3 367.212 140.323C367.209 140.323 367.206 140.324 367.203 140.324C367.017 140.348 366.834 140.375 366.651 140.404C366.611 140.41 366.572 140.418 366.532 140.424C366.392 140.447 366.253 140.472 366.115 140.498C366.066 140.507 366.018 140.516 365.97 140.526C365.835 140.552 365.702 140.58 365.57 140.609C365.529 140.618 365.488 140.627 365.447 140.636C365.278 140.674 365.111 140.714 364.946 140.756C364.946 140.757 364.945 140.757 364.945 140.757C364.447 142.706 364.182 144.749 364.182 146.854C364.182 158.249 371.938 167.832 382.458 170.616C382.737 170.627 383.015 170.638 383.3 170.646C383.326 170.646 383.351 170.643 383.377 170.642C383.419 170.641 383.46 170.636 383.501 170.629C383.562 170.62 383.622 170.606 383.68 170.587C383.681 170.587 383.682 170.586 383.683 170.586C383.741 170.568 383.798 170.544 383.852 170.517C383.855 170.514 383.86 170.512 383.864 170.51C383.873 170.505 383.882 170.5 383.892 170.495C383.948 170.463 384.001 170.427 384.05 170.387C384.052 170.385 384.054 170.384 384.055 170.382C384.105 170.341 384.151 170.296 384.193 170.247C384.195 170.245 384.196 170.243 384.198 170.242C384.206 170.232 384.215 170.221 384.223 170.211C384.249 170.177 384.275 170.143 384.298 170.107C384.348 170.025 384.386 169.939 384.414 169.849C384.417 169.841 384.42 169.832 384.422 169.823C384.442 169.755 384.454 169.686 384.461 169.616C384.461 169.612 384.462 169.608 384.462 169.604C384.48 169.389 384.438 169.17 384.333 168.973L384.289 168.891C384.288 168.891 384.288 168.89 384.288 168.889L383.423 167.274H383.423H383.424C383.432 167.276 385.205 167.638 387.825 167.638C393.517 167.638 403.862 165.923 409.192 154.434C409.215 154.386 409.233 154.337 409.248 154.288C409.258 154.255 409.265 154.221 409.272 154.187Z" fill="#A06335"/>
<path d="M384.301 171.957C372.868 171.957 364.536 169.466 359.537 164.552C358.426 163.461 357.606 162.361 357 161.339C356.395 162.36 355.574 163.461 354.464 164.552C349.464 169.466 341.133 171.957 329.7 171.957C329.101 171.957 328.545 171.643 328.238 171.128C327.93 170.614 327.914 169.976 328.197 169.447L328.494 168.894C326.382 168.989 323.468 168.897 320.306 168.133C314.568 166.747 306.926 162.825 303.098 152.014C302.862 151.348 303.062 150.606 303.599 150.148C304.137 149.69 304.902 149.611 305.522 149.949C305.549 149.964 308.632 151.604 312.931 151.909C318.575 152.311 323.605 150.322 327.881 145.999C334.367 139.444 340.891 138.054 345.223 138.043C345.243 138.042 345.262 138.042 345.282 138.042C350.368 138.042 354.46 139.826 357 141.785C359.541 139.826 363.633 138.042 368.72 138.042C368.74 138.042 368.759 138.042 368.778 138.043C373.11 138.054 379.634 139.444 386.12 145.999C386.539 146.423 386.972 146.83 387.407 147.209C388.117 147.828 388.19 148.905 387.572 149.614C386.953 150.324 385.876 150.398 385.167 149.779C384.669 149.345 384.174 148.88 383.697 148.397C378.035 142.674 372.454 141.462 368.769 141.451C368.753 141.451 368.737 141.451 368.721 141.451C363.764 141.451 359.96 143.494 358.206 145.249C357.54 145.914 356.461 145.914 355.796 145.249C354.041 143.494 350.237 141.451 345.281 141.451C345.264 141.451 345.248 141.451 345.232 141.451C341.547 141.461 335.967 142.674 330.305 148.397C324.016 154.753 317.17 155.658 312.535 155.298C310.766 155.161 309.183 154.835 307.87 154.468C310.731 159.909 315.169 163.385 321.106 164.819C326.511 166.124 331.128 165.195 331.174 165.186C331.82 165.051 332.489 165.304 332.885 165.834C333.281 166.365 333.335 167.076 333.022 167.66L332.578 168.489C354.347 167.584 355.292 156.432 355.299 156.315C355.354 155.416 356.1 154.715 357 154.715C357.901 154.715 358.647 155.416 358.702 156.315C358.711 156.421 358.982 159.341 362.125 162.312C364.901 164.936 370.469 168.025 381.422 168.488L380.978 167.66C380.666 167.076 380.719 166.365 381.116 165.835C381.512 165.304 382.179 165.051 382.827 165.186C382.871 165.194 387.596 166.128 393.012 164.79C398.887 163.338 403.284 159.877 406.125 154.478C402.407 155.522 396.532 156.228 390.367 153.246C389.52 152.836 389.165 151.817 389.575 150.97C389.985 150.122 391.004 149.767 391.852 150.177C400.298 154.262 408.402 149.991 408.483 149.947C409.103 149.613 409.868 149.693 410.403 150.152C410.938 150.61 411.138 151.349 410.903 152.014C407.075 162.825 399.432 166.747 393.695 168.133C390.532 168.896 387.618 168.989 385.507 168.894L385.803 169.447C386.086 169.976 386.071 170.614 385.763 171.128C385.455 171.643 384.9 171.957 384.301 171.957Z" fill="#231F20"/>
</g>
<path d="M270.254 390.731L277.438 386.117L264.696 312.226H252.305L239.563 386.117L258.5 398.279L265.552 393.751" fill="#FF6342"/>
<path d="M275.742 371.369L270.854 342.047L265.323 308.863H257.365C255.52 314.498 254.517 320.515 254.517 326.767C254.518 344.765 262.792 360.829 275.742 371.369Z" fill="#FC7963"/>
<path d="M245.716 391.859L251.49 357.218L258.615 314.466L259.004 312.131H253.494L253.126 314.34L246.384 354.783L240.923 387.553L241.618 389.155L245.727 391.885L245.716 391.859Z" fill="#EA4126"/>
<path d="M247.097 342.422L267.65 329.358L266.261 321.304L265.11 321.203L248.99 331.45L247.097 342.422Z" fill="#ECE5DD"/>
<path d="M267.22 292.721H258.5H249.78L245.879 298.789L252.305 312.226H258.5H264.696L271.121 298.789L267.22 292.721Z" fill="#FF6342"/>
<path d="M271.264 297.651L268.322 293.074L266.971 292.336H265.966C261.651 298.097 258.395 304.695 256.479 311.842H259.128H265.323L265.692 311.072L270.353 301.324L271.363 299.213L271.264 297.651Z" fill="#FC5842"/>
<path d="M265.453 310.643L269.065 303.09L252.781 292.721H249.78L246.187 298.311L265.453 310.643Z" fill="#ECE5DD"/>
<path d="M245.154 388.59L246.646 379.638L240.456 383.716L240.361 384.285L241.056 385.887L245.166 388.617L245.154 388.59Z" fill="#C6C1BE"/>
<path d="M255.828 337.063L268.966 328.423L267.577 320.09L267.442 319.277L255.222 327.342C255.213 327.761 255.206 328.181 255.206 328.603C255.206 331.477 255.42 334.302 255.828 337.063Z" fill="#F2ECE7"/>
<path d="M251.224 352.17L245.034 356.248L243.121 367.728L249.315 363.626L250.928 353.95L251.224 352.17Z" fill="#C6C1BE"/>
<path d="M258.362 347.467C259.397 350.149 260.627 352.733 262.035 355.203L271.953 348.635L270.433 339.515L258.362 347.467Z" fill="#F7F1EB"/>
<path d="M269.001 364.91C270.918 367.07 272.995 369.084 275.214 370.935L275.624 370.663L274.105 361.548L269.001 364.91Z" fill="#F7F1EB"/>
<path d="M258.504 311.072L252.834 299.213L252.932 297.651L255.874 293.074L257.225 292.336H252.432L251.081 293.074L248.138 297.651L248.04 299.213L253.711 311.072V311.072L254.079 311.842H258.872L258.504 311.072V311.072Z" fill="#EA4126"/>
<path d="M255.524 304.042L253.863 300.569L253.992 298.515L257.801 292.589L256.129 291.524H253.335L251.557 292.494L247.687 298.515L247.656 299.007L255.524 304.042Z" fill="#C6C1BE"/>
<path d="M266.081 310.258L269.692 302.705L262.246 297.964C260.856 300.361 259.634 302.867 258.596 305.467L266.081 310.258Z" fill="#F4F0ED"/>
<path d="M269.805 341.853L244.407 358.027L242.493 369.122L271.325 350.668L269.805 341.853Z" fill="#ECE5DD"/>
<path d="M252.373 352.954L246.207 356.88L244.366 367.923L250.535 363.974L251.662 357.218L252.373 352.954Z" fill="#C6C1BE"/>
<path d="M258.896 348.8C259.966 351.377 261.219 353.858 262.637 356.229L271.325 350.668L269.805 341.853L258.896 348.8Z" fill="#F2ECE7"/>
<path d="M274.997 371.959L273.477 363.148L239.828 384.575L239.563 386.117L246.208 390.385L274.997 371.959Z" fill="#ECE5DD"/>
<path d="M241.8 383.32L241.163 387.145L246.141 390.342L247.966 379.394L241.8 383.32Z" fill="#C6C1BE"/>
<path d="M256.497 326.5L250.306 330.587L248.962 338.644L248.413 341.939L254.603 337.869L256.497 326.5Z" fill="#C6C1BE"/>
<path d="M279.134 385.825L269.349 329.08C269.348 329.075 269.347 329.07 269.346 329.065L266.485 312.474L272.674 299.532C272.931 298.993 272.892 298.36 272.569 297.859L268.668 291.79C268.351 291.298 267.806 291 267.22 291H249.78C249.195 291 248.649 291.298 248.333 291.79L244.432 297.858C244.109 298.36 244.069 298.993 244.326 299.532L250.515 312.474L247.334 330.923C247.281 331.085 247.251 331.254 247.247 331.425L237.866 385.824C237.749 386.506 238.051 387.191 238.632 387.565L257.57 399.727C257.853 399.909 258.177 400 258.5 400C258.824 400 259.147 399.909 259.43 399.727L266.482 395.199C267.282 394.685 267.514 393.621 267 392.821C266.487 392.021 265.422 391.789 264.622 392.303L258.501 396.234L249.362 390.365L273.751 374.862L275.548 385.285L269.325 389.282C268.525 389.796 268.293 390.861 268.806 391.66C269.32 392.46 270.385 392.692 271.184 392.179L278.368 387.565C278.95 387.192 279.251 386.506 279.134 385.825ZM249.668 302.724L261.911 310.505H253.389L249.668 302.724ZM253.754 313.947H263.246L264.242 319.719C264.223 319.73 264.205 319.739 264.187 319.75L251.346 327.912L253.754 313.947ZM250.556 332.493L264.875 323.392L265.759 328.521L249.454 338.885L250.556 332.493ZM248.664 343.466L266.393 332.197L267.934 341.132L246.744 354.601L248.664 343.466ZM245.96 359.145C246.049 359.107 246.138 359.064 246.222 359.011L268.568 344.808L269.452 349.937L244.851 365.574L245.96 359.145ZM244.062 370.154L270.087 353.613L271.598 362.382L242.177 381.082L244.062 370.154ZM269.155 298.913L268.294 300.713L258.427 294.442H266.281L269.155 298.913ZM250.72 294.442H252.01L266.798 303.842L264.711 308.206L248.497 297.9L250.72 294.442ZM246.169 388.315L241.713 385.453C241.724 385.446 241.736 385.441 241.748 385.434L272.232 366.058L273.117 371.187L246.169 388.315Z" fill="#231F20"/>
<defs>
<clipPath id="clip0">
<rect x="303" y="101" width="108" height="108" fill="white"/>
</clipPath>
</defs>
</svg>
